<?xml version="1.0" encoding="UTF-8" standalone="no"?>
<!DOCTYPE svg PUBLIC "-//W3C//DTD SVG 1.1//EN"
 "http://www.w3.org/Graphics/SVG/1.1/DTD/svg11.dtd">
<!-- Generated by graphviz version 2.32.0 (20130817.2358)
 -->
<!-- Title: controllers_diagram Pages: 1 -->
<svg width="2757pt" height="1479pt"
 viewBox="0.00 0.00 2756.60 1478.97" xmlns="http://www.w3.org/2000/svg" xmlns:xlink="http://www.w3.org/1999/xlink">
<g id="graph0" class="graph" transform="scale(1 1) rotate(0) translate(4 1474.97)">
<title>controllers_diagram</title>
<polygon fill="white" stroke="white" points="-4,5 -4,-1474.97 2753.6,-1474.97 2753.6,5 -4,5"/>
<!-- _diagram_info -->
<g id="node1" class="node"><title>_diagram_info</title>
<text text-anchor="start" x="2228" y="-69" font-family="Times,serif" font-size="13.00">Controllers diagram</text>
<text text-anchor="start" x="2228" y="-53.4" font-family="Times,serif" font-size="13.00">Date: Aug 17 2013 &#45; 20:06</text>
<text text-anchor="start" x="2228" y="-37.8" font-family="Times,serif" font-size="13.00">Migration version: 20130626163929</text>
<text text-anchor="start" x="2228" y="-22.2" font-family="Times,serif" font-size="13.00">Generated by RailRoady 1.1.1</text>
<text text-anchor="start" x="2228" y="-6.6" font-family="Times,serif" font-size="13.00">http://railroady.prestonlee.com</text>
</g>
<!-- AnalyticsController -->
<g id="node2" class="node"><title>AnalyticsController</title>
<ellipse fill="none" stroke="black" cx="152.058" cy="-261.522" rx="87.9814" ry="18"/>
<text text-anchor="middle" x="152.058" y="-255.922" font-family="Times,serif" font-size="14.00">AnalyticsController</text>
</g>
<!-- ApplicationController -->
<g id="node3" class="node"><title>ApplicationController</title>
<ellipse fill="none" stroke="black" cx="1381.28" cy="-921.46" rx="96.1448" ry="18"/>
<text text-anchor="middle" x="1381.28" y="-915.86" font-family="Times,serif" font-size="14.00">ApplicationController</text>
</g>
<!-- ApplicationController&#45;&gt;AnalyticsController -->
<g id="edge1" class="edge"><title>ApplicationController&#45;&gt;AnalyticsController</title>
<path fill="none" stroke="black" d="M1365.36,-903.575C1342.95,-879.131 1300.01,-834.94 1256.98,-805.213 875.517,-541.646 347.385,-334.447 194.865,-277.27"/>
</g>
<!-- AssignmentSubmissionsController -->
<g id="node4" class="node"><title>AssignmentSubmissionsController</title>
<ellipse fill="none" stroke="black" cx="1271.73" cy="-166" rx="145.912" ry="18"/>
<text text-anchor="middle" x="1271.73" y="-160.4" font-family="Times,serif" font-size="14.00">AssignmentSubmissionsController</text>
</g>
<!-- ApplicationController&#45;&gt;AssignmentSubmissionsController -->
<g id="edge2" class="edge"><title>ApplicationController&#45;&gt;AssignmentSubmissionsController</title>
<path fill="none" stroke="black" d="M1373.95,-903.287C1359.33,-865.668 1327.31,-776.196 1320.33,-697.537 1312.52,-609.343 1342.78,-587.521 1338.02,-499.108 1331.44,-376.932 1291.97,-233.967 1277.26,-184.182"/>
</g>
<!-- AssignmentTypesController -->
<g id="node5" class="node"><title>AssignmentTypesController</title>
<ellipse fill="none" stroke="black" cx="1053.63" cy="-1448.56" rx="119.59" ry="18"/>
<text text-anchor="middle" x="1053.63" y="-1442.96" font-family="Times,serif" font-size="14.00">AssignmentTypesController</text>
</g>
<!-- ApplicationController&#45;&gt;AssignmentTypesController -->
<g id="edge3" class="edge"><title>ApplicationController&#45;&gt;AssignmentTypesController</title>
<path fill="none" stroke="black" d="M1377.24,-939.453C1368.68,-975.594 1346.6,-1058.93 1312.14,-1121.9 1240.78,-1252.27 1117.41,-1383.83 1071.51,-1430.66"/>
</g>
<!-- AssignmentsController -->
<g id="node6" class="node"><title>AssignmentsController</title>
<ellipse fill="none" stroke="black" cx="2172.36" cy="-641.085" rx="100.755" ry="18"/>
<text text-anchor="middle" x="2172.36" y="-635.485" font-family="Times,serif" font-size="14.00">AssignmentsController</text>
</g>
<!-- ApplicationController&#45;&gt;AssignmentsController -->
<g id="edge4" class="edge"><title>ApplicationController&#45;&gt;AssignmentsController</title>
<path fill="none" stroke="black" d="M1442.11,-907.387C1508.8,-891.49 1618.71,-863.922 1711.64,-834.096 1875.34,-781.551 2061.8,-694.637 2137.59,-658.098"/>
</g>
<!-- BadgeSetsController -->
<g id="node7" class="node"><title>BadgeSetsController</title>
<ellipse fill="none" stroke="black" cx="876.671" cy="-809.905" rx="91.4969" ry="18"/>
<text text-anchor="middle" x="876.671" y="-804.305" font-family="Times,serif" font-size="14.00">BadgeSetsController</text>
</g>
<!-- ApplicationController&#45;&gt;BadgeSetsController -->
<g id="edge5" class="edge"><title>ApplicationController&#45;&gt;BadgeSetsController</title>
<path fill="none" stroke="black" d="M1318.9,-907.669C1221.46,-886.13 1034.34,-844.762 937.728,-823.403"/>
</g>
<!-- BadgesController -->
<g id="node8" class="node"><title>BadgesController</title>
<ellipse fill="none" stroke="black" cx="651.281" cy="-191.597" rx="79.3174" ry="18"/>
<text text-anchor="middle" x="651.281" y="-185.997" font-family="Times,serif" font-size="14.00">BadgesController</text>
</g>
<!-- ApplicationController&#45;&gt;BadgesController -->
<g id="edge6" class="edge"><title>ApplicationController&#45;&gt;BadgesController</title>
<path fill="none" stroke="black" d="M1366.27,-903.535C1318.35,-846.604 1164.01,-665.467 1024.65,-526.562 896.359,-398.691 730.059,-257.481 672.206,-209.023"/>
</g>
<!-- ChallengeGradesController -->
<g id="node9" class="node"><title>ChallengeGradesController</title>
<ellipse fill="none" stroke="black" cx="2626.09" cy="-202.907" rx="117.46" ry="18"/>
<text text-anchor="middle" x="2626.09" y="-197.307" font-family="Times,serif" font-size="14.00">ChallengeGradesController</text>
</g>
<!-- ApplicationController&#45;&gt;ChallengeGradesController -->
<g id="edge7" class="edge"><title>ApplicationController&#45;&gt;ChallengeGradesController</title>
<path fill="none" stroke="black" d="M1400.21,-903.732C1423.43,-882.464 1464.49,-846.38 1503.17,-820.019 1906.63,-545.001 2443.76,-287.912 2588.73,-220.193"/>
</g>
<!-- ChallengesController -->
<g id="node10" class="node"><title>ChallengesController</title>
<ellipse fill="none" stroke="black" cx="1242.78" cy="-499.056" rx="93.7786" ry="18"/>
<text text-anchor="middle" x="1242.78" y="-493.456" font-family="Times,serif" font-size="14.00">ChallengesController</text>
</g>
<!-- ApplicationController&#45;&gt;ChallengesController -->
<g id="edge8" class="edge"><title>ApplicationController&#45;&gt;ChallengesController</title>
<path fill="none" stroke="black" d="M1375.32,-903.31C1352.6,-833.987 1271.4,-586.346 1248.71,-517.139"/>
</g>
<!-- CourseGradeSchemeElementsController -->
<g id="node11" class="node"><title>CourseGradeSchemeElementsController</title>
<ellipse fill="none" stroke="black" cx="1798.32" cy="-172.499" rx="168.367" ry="18"/>
<text text-anchor="middle" x="1798.32" y="-166.899" font-family="Times,serif" font-size="14.00">CourseGradeSchemeElementsController</text>
</g>
<!-- ApplicationController&#45;&gt;CourseGradeSchemeElementsController -->
<g id="edge9" class="edge"><title>ApplicationController&#45;&gt;CourseGradeSchemeElementsController</title>
<path fill="none" stroke="black" d="M1398.18,-903.427C1449.23,-848.105 1603.66,-674.246 1690.98,-504.792 1749.02,-392.16 1783.83,-241.955 1794.66,-190.599"/>
</g>
<!-- CourseGradeSchemesController -->
<g id="node12" class="node"><title>CourseGradeSchemesController</title>
<ellipse fill="none" stroke="black" cx="1553.37" cy="-504.747" rx="136.012" ry="18"/>
<text text-anchor="middle" x="1553.37" y="-499.147" font-family="Times,serif" font-size="14.00">CourseGradeSchemesController</text>
</g>
<!-- ApplicationController&#45;&gt;CourseGradeSchemesController -->
<g id="edge10" class="edge"><title>ApplicationController&#45;&gt;CourseGradeSchemesController</title>
<path fill="none" stroke="black" d="M1388.78,-903.286C1417.12,-834.673 1517.42,-591.791 1545.83,-523.016"/>
</g>
<!-- CourseMembershipsController -->
<g id="node13" class="node"><title>CourseMembershipsController</title>
<ellipse fill="none" stroke="black" cx="130.659" cy="-811.788" rx="130.818" ry="18"/>
<text text-anchor="middle" x="130.659" y="-806.188" font-family="Times,serif" font-size="14.00">CourseMembershipsController</text>
</g>
<!-- ApplicationController&#45;&gt;CourseMembershipsController -->
<g id="edge11" class="edge"><title>ApplicationController&#45;&gt;CourseMembershipsController</title>
<path fill="none" stroke="black" d="M1293.83,-913.792C1071.71,-894.313 486.038,-842.953 240.96,-821.461"/>
</g>
<!-- CoursesController -->
<g id="node14" class="node"><title>CoursesController</title>
<ellipse fill="none" stroke="black" cx="2653.4" cy="-992.668" rx="81.6928" ry="18"/>
<text text-anchor="middle" x="2653.4" y="-987.068" font-family="Times,serif" font-size="14.00">CoursesController</text>
</g>
<!-- ApplicationController&#45;&gt;CoursesController -->
<g id="edge12" class="edge"><title>ApplicationController&#45;&gt;CoursesController</title>
<path fill="none" stroke="black" d="M1473.79,-926.638C1713.07,-940.032 2349.3,-975.645 2573.69,-988.206"/>
</g>
<!-- CriteriaController -->
<g id="node15" class="node"><title>CriteriaController</title>
<ellipse fill="none" stroke="black" cx="2166.66" cy="-1028.6" rx="80.449" ry="18"/>
<text text-anchor="middle" x="2166.66" y="-1023" font-family="Times,serif" font-size="14.00">CriteriaController</text>
</g>
<!-- ApplicationController&#45;&gt;CriteriaController -->
<g id="edge13" class="edge"><title>ApplicationController&#45;&gt;CriteriaController</title>
<path fill="none" stroke="black" d="M1459.09,-932.075C1612.64,-953.02 1952.32,-999.357 2098.06,-1019.24"/>
</g>
<!-- CriteriaLevelsController -->
<g id="node16" class="node"><title>CriteriaLevelsController</title>
<ellipse fill="none" stroke="black" cx="1701.18" cy="-1452.97" rx="105.93" ry="18"/>
<text text-anchor="middle" x="1701.18" y="-1447.37" font-family="Times,serif" font-size="14.00">CriteriaLevelsController</text>
</g>
<!-- ApplicationController&#45;&gt;CriteriaLevelsController -->
<g id="edge14" class="edge"><title>ApplicationController&#45;&gt;CriteriaLevelsController</title>
<path fill="none" stroke="black" d="M1372.74,-939.595C1356.78,-976.093 1326.05,-1060.61 1349.21,-1127.19 1404.04,-1284.87 1588.88,-1395.39 1666.45,-1435.91"/>
</g>
<!-- CurrentCoursesController -->
<g id="node17" class="node"><title>CurrentCoursesController</title>
<ellipse fill="none" stroke="black" cx="1835.06" cy="-538.355" rx="111.191" ry="18"/>
<text text-anchor="middle" x="1835.06" y="-532.755" font-family="Times,serif" font-size="14.00">CurrentCoursesController</text>
</g>
<!-- ApplicationController&#45;&gt;CurrentCoursesController -->
<g id="edge15" class="edge"><title>ApplicationController&#45;&gt;CurrentCoursesController</title>
<path fill="none" stroke="black" d="M1402.25,-903.75C1478.16,-839.663 1738.07,-620.237 1814.05,-556.097"/>
</g>
<!-- EarnedBadgesController -->
<g id="node18" class="node"><title>EarnedBadgesController</title>
<ellipse fill="none" stroke="black" cx="2128.46" cy="-213.465" rx="106.505" ry="18"/>
<text text-anchor="middle" x="2128.46" y="-207.865" font-family="Times,serif" font-size="14.00">EarnedBadgesController</text>
</g>
<!-- ApplicationController&#45;&gt;EarnedBadgesController -->
<g id="edge16" class="edge"><title>ApplicationController&#45;&gt;EarnedBadgesController</title>
<path fill="none" stroke="black" d="M1395.57,-903.305C1440.62,-846.543 1584.85,-668.454 1722.12,-538.229 1857.08,-410.19 2037.95,-277.922 2103.46,-231.139"/>
</g>
<!-- ElementsController -->
<g id="node19" class="node"><title>ElementsController</title>
<ellipse fill="none" stroke="black" cx="678.905" cy="-1428.16" rx="86.8309" ry="18"/>
<text text-anchor="middle" x="678.905" y="-1422.56" font-family="Times,serif" font-size="14.00">ElementsController</text>
</g>
<!-- ApplicationController&#45;&gt;ElementsController -->
<g id="edge17" class="edge"><title>ApplicationController&#45;&gt;ElementsController</title>
<path fill="none" stroke="black" d="M1357.1,-938.902C1249.03,-1016.86 810.84,-1332.98 702.98,-1410.79"/>
</g>
<!-- FaqsController -->
<g id="node20" class="node"><title>FaqsController</title>
<ellipse fill="none" stroke="black" cx="159.66" cy="-1358.64" rx="68.9469" ry="18"/>
<text text-anchor="middle" x="159.66" y="-1353.04" font-family="Times,serif" font-size="14.00">FaqsController</text>
</g>
<!-- ApplicationController&#45;&gt;FaqsController -->
<g id="edge18" class="edge"><title>ApplicationController&#45;&gt;FaqsController</title>
<path fill="none" stroke="black" d="M1330.64,-936.919C1241.05,-964.479 1048.91,-1024.52 888.649,-1080.94 621.66,-1174.94 304.728,-1300.55 197.355,-1343.5"/>
</g>
<!-- GradeSchemeElementsController -->
<g id="node21" class="node"><title>GradeSchemeElementsController</title>
<ellipse fill="none" stroke="black" cx="590.835" cy="-1012.61" rx="140.651" ry="18"/>
<text text-anchor="middle" x="590.835" y="-1007.01" font-family="Times,serif" font-size="14.00">GradeSchemeElementsController</text>
</g>
<!-- ApplicationController&#45;&gt;GradeSchemeElementsController -->
<g id="edge19" class="edge"><title>ApplicationController&#45;&gt;GradeSchemeElementsController</title>
<path fill="none" stroke="black" d="M1299.29,-930.914C1154.75,-947.581 854.834,-982.164 695.543,-1000.53"/>
</g>
<!-- GradeSchemesController -->
<g id="node22" class="node"><title>GradeSchemesController</title>
<ellipse fill="none" stroke="black" cx="1146.74" cy="-805.034" rx="108.796" ry="18"/>
<text text-anchor="middle" x="1146.74" y="-799.434" font-family="Times,serif" font-size="14.00">GradeSchemesController</text>
</g>
<!-- ApplicationController&#45;&gt;GradeSchemesController -->
<g id="edge20" class="edge"><title>ApplicationController&#45;&gt;GradeSchemesController</title>
<path fill="none" stroke="black" d="M1347.17,-904.531C1302.83,-882.52 1225.81,-844.286 1181.26,-822.173"/>
</g>
<!-- GradesController -->
<g id="node23" class="node"><title>GradesController</title>
<ellipse fill="none" stroke="black" cx="590.005" cy="-610.262" rx="78.1575" ry="18"/>
<text text-anchor="middle" x="590.005" y="-604.662" font-family="Times,serif" font-size="14.00">GradesController</text>
</g>
<!-- ApplicationController&#45;&gt;GradesController -->
<g id="edge21" class="edge"><title>ApplicationController&#45;&gt;GradesController</title>
<path fill="none" stroke="black" d="M1329.76,-906.205C1267.26,-887.324 1158.98,-853.404 1068.07,-818.766 898.844,-754.284 702.246,-663.294 624.332,-626.572"/>
</g>
<!-- GroupMembershipsController -->
<g id="node24" class="node"><title>GroupMembershipsController</title>
<ellipse fill="none" stroke="black" cx="1812.23" cy="-1107.99" rx="127.952" ry="18"/>
<text text-anchor="middle" x="1812.23" y="-1102.39" font-family="Times,serif" font-size="14.00">GroupMembershipsController</text>
</g>
<!-- ApplicationController&#45;&gt;GroupMembershipsController -->
<g id="edge22" class="edge"><title>ApplicationController&#45;&gt;GroupMembershipsController</title>
<path fill="none" stroke="black" d="M1419.52,-938.013C1500.78,-973.187 1689.96,-1055.07 1772.51,-1090.8"/>
</g>
<!-- GroupsController -->
<g id="node25" class="node"><title>GroupsController</title>
<ellipse fill="none" stroke="black" cx="2076.57" cy="-1428.75" rx="79.3268" ry="18"/>
<text text-anchor="middle" x="2076.57" y="-1423.15" font-family="Times,serif" font-size="14.00">GroupsController</text>
</g>
<!-- ApplicationController&#45;&gt;GroupsController -->
<g id="edge23" class="edge"><title>ApplicationController&#45;&gt;GroupsController</title>
<path fill="none" stroke="black" d="M1411.17,-938.808C1469.37,-972.925 1601.38,-1052.02 1706.31,-1127.56 1845.85,-1228.03 2002.44,-1363.5 2056.77,-1411.23"/>
</g>
<!-- HomeController -->
<g id="node26" class="node"><title>HomeController</title>
<ellipse fill="none" stroke="black" cx="1376.36" cy="-1450.36" rx="74.1605" ry="18"/>
<text text-anchor="middle" x="1376.36" y="-1444.76" font-family="Times,serif" font-size="14.00">HomeController</text>
</g>
<!-- ApplicationController&#45;&gt;HomeController -->
<g id="edge24" class="edge"><title>ApplicationController&#45;&gt;HomeController</title>
<path fill="none" stroke="black" d="M1376.98,-939.484C1368.83,-975.095 1351.69,-1057.1 1349.21,-1127.19 1345.08,-1243.66 1365.38,-1383.07 1373.3,-1432.17"/>
</g>
<!-- InfoController -->
<g id="node27" class="node"><title>InfoController</title>
<ellipse fill="none" stroke="black" cx="1523.26" cy="-170.978" rx="66.6376" ry="18"/>
<text text-anchor="middle" x="1523.26" y="-165.378" font-family="Times,serif" font-size="14.00">InfoController</text>
</g>
<!-- ApplicationController&#45;&gt;InfoController -->
<g id="edge25" class="edge"><title>ApplicationController&#45;&gt;InfoController</title>
<path fill="none" stroke="black" d="M1392.94,-903.544C1415.8,-866.758 1464.69,-779.314 1468.97,-697.929 1473.65,-608.977 1413.86,-593.756 1415.77,-504.702 1418.47,-378.731 1487.09,-238.282 1513.25,-189.132"/>
</g>
<!-- PasswordResetsController -->
<g id="node28" class="node"><title>PasswordResetsController</title>
<ellipse fill="none" stroke="black" cx="2611.09" cy="-1413.35" rx="112.925" ry="18"/>
<text text-anchor="middle" x="2611.09" y="-1407.75" font-family="Times,serif" font-size="14.00">PasswordResetsController</text>
</g>
<!-- ApplicationController&#45;&gt;PasswordResetsController -->
<g id="edge26" class="edge"><title>ApplicationController&#45;&gt;PasswordResetsController</title>
<path fill="none" stroke="black" d="M1430.55,-937.024C1523.59,-966.565 1731.31,-1033.27 1904.6,-1094.24 2172.48,-1188.5 2478.72,-1344.16 2578.1,-1395.97"/>
</g>
<!-- RubricsController -->
<g id="node29" class="node"><title>RubricsController</title>
<ellipse fill="none" stroke="black" cx="946.667" cy="-1094.85" rx="80.543" ry="18"/>
<text text-anchor="middle" x="946.667" y="-1089.25" font-family="Times,serif" font-size="14.00">RubricsController</text>
</g>
<!-- ApplicationController&#45;&gt;RubricsController -->
<g id="edge27" class="edge"><title>ApplicationController&#45;&gt;RubricsController</title>
<path fill="none" stroke="black" d="M1340.39,-937.772C1257.03,-971.03 1068.38,-1046.29 986.187,-1079.09"/>
</g>
<!-- ScopeController -->
<g id="node30" class="node"><title>ScopeController</title>
<ellipse fill="none" stroke="black" cx="948.721" cy="-526.524" rx="74.1605" ry="18"/>
<text text-anchor="middle" x="948.721" y="-520.924" font-family="Times,serif" font-size="14.00">ScopeController</text>
</g>
<!-- ApplicationController&#45;&gt;ScopeController -->
<g id="edge28" class="edge"><title>ApplicationController&#45;&gt;ScopeController</title>
<path fill="none" stroke="black" d="M1362.42,-903.635C1338.14,-880.735 1294.61,-839.811 1256.98,-805.213 1148.64,-705.592 1017.22,-587.771 968.3,-544.017"/>
</g>
<!-- ScoreLevelsController -->
<g id="node31" class="node"><title>ScoreLevelsController</title>
<ellipse fill="none" stroke="black" cx="2650.14" cy="-620.303" rx="98.4165" ry="18"/>
<text text-anchor="middle" x="2650.14" y="-614.703" font-family="Times,serif" font-size="14.00">ScoreLevelsController</text>
</g>
<!-- ApplicationController&#45;&gt;ScoreLevelsController -->
<g id="edge29" class="edge"><title>ApplicationController&#45;&gt;ScoreLevelsController</title>
<path fill="none" stroke="black" d="M1438.53,-906.931C1521.21,-886.021 1678.89,-846.404 1813.45,-814.108 2102.7,-744.688 2449.25,-665.767 2588.14,-634.312"/>
</g>
<!-- StudentAssignmentTypeWeightsController -->
<g id="node32" class="node"><title>StudentAssignmentTypeWeightsController</title>
<ellipse fill="none" stroke="black" cx="1527.76" cy="-1127.37" rx="176.917" ry="18"/>
<text text-anchor="middle" x="1527.76" y="-1121.77" font-family="Times,serif" font-size="14.00">StudentAssignmentTypeWeightsController</text>
</g>
<!-- ApplicationController&#45;&gt;StudentAssignmentTypeWeightsController -->
<g id="edge30" class="edge"><title>ApplicationController&#45;&gt;StudentAssignmentTypeWeightsController</title>
<path fill="none" stroke="black" d="M1394.02,-939.373C1421.72,-978.316 1487.17,-1070.32 1514.94,-1109.36"/>
</g>
<!-- TeamMembershipController -->
<g id="node33" class="node"><title>TeamMembershipController</title>
<ellipse fill="none" stroke="black" cx="1625.61" cy="-820.147" rx="120.703" ry="18"/>
<text text-anchor="middle" x="1625.61" y="-814.547" font-family="Times,serif" font-size="14.00">TeamMembershipController</text>
</g>
<!-- ApplicationController&#45;&gt;TeamMembershipController -->
<g id="edge31" class="edge"><title>ApplicationController&#45;&gt;TeamMembershipController</title>
<path fill="none" stroke="black" d="M1421.08,-904.957C1466.11,-886.285 1539.08,-856.026 1584.61,-837.15"/>
</g>
<!-- TeamsController -->
<g id="node34" class="node"><title>TeamsController</title>
<ellipse fill="none" stroke="black" cx="995.765" cy="-173.33" rx="75.5936" ry="18"/>
<text text-anchor="middle" x="995.765" y="-167.73" font-family="Times,serif" font-size="14.00">TeamsController</text>
</g>
<!-- ApplicationController&#45;&gt;TeamsController -->
<g id="edge32" class="edge"><title>ApplicationController&#45;&gt;TeamsController</title>
<path fill="none" stroke="black" d="M1370.56,-903.175C1336.55,-844.914 1228.52,-658.122 1147.54,-499.004 1088.84,-383.645 1025.58,-241.33 1003.72,-191.547"/>
</g>
<!-- ThemesController -->
<g id="node35" class="node"><title>ThemesController</title>
<ellipse fill="none" stroke="black" cx="1229.25" cy="-1121.71" rx="81.099" ry="18"/>
<text text-anchor="middle" x="1229.25" y="-1116.11" font-family="Times,serif" font-size="14.00">ThemesController</text>
</g>
<!-- ApplicationController&#45;&gt;ThemesController -->
<g id="edge33" class="edge"><title>ApplicationController&#45;&gt;ThemesController</title>
<path fill="none" stroke="black" d="M1367.52,-939.584C1338.57,-977.708 1271.69,-1065.81 1242.87,-1103.77"/>
</g>
<!-- UserSessionsController -->
<g id="node36" class="node"><title>UserSessionsController</title>
<ellipse fill="none" stroke="black" cx="1886.61" cy="-828.016" rx="102.471" ry="18"/>
<text text-anchor="middle" x="1886.61" y="-822.416" font-family="Times,serif" font-size="14.00">UserSessionsController</text>
</g>
<!-- ApplicationController&#45;&gt;UserSessionsController -->
<g id="edge34" class="edge"><title>ApplicationController&#45;&gt;UserSessionsController</title>
<path fill="none" stroke="black" d="M1449.95,-908.76C1545.89,-891.021 1719.12,-858.989 1816.05,-841.064"/>
</g>
<!-- UsersController -->
<g id="node37" class="node"><title>UsersController</title>
<ellipse fill="none" stroke="black" cx="1394.65" cy="-697.733" rx="72.9449" ry="18"/>
<text text-anchor="middle" x="1394.65" y="-692.133" font-family="Times,serif" font-size="14.00">UsersController</text>
</g>
<!-- ApplicationController&#45;&gt;UsersController -->
<g id="edge35" class="edge"><title>ApplicationController&#45;&gt;UsersController</title>
<path fill="none" stroke="black" d="M1382.37,-903.151C1384.88,-861.094 1391.05,-757.979 1393.56,-715.981"/>
</g>
</g>
</svg>
