<?xml version="1.0" encoding="UTF-8" standalone="no"?>
<!DOCTYPE svg PUBLIC "-//W3C//DTD SVG 1.1//EN"
 "http://www.w3.org/Graphics/SVG/1.1/DTD/svg11.dtd">
<!-- Generated by graphviz version 2.32.0 (20130817.2358)
 -->
<!-- Title: models_diagram Pages: 1 -->
<svg width="2200pt" height="834pt"
 viewBox="0.00 0.00 2200.00 834.00" xmlns="http://www.w3.org/2000/svg" xmlns:xlink="http://www.w3.org/1999/xlink">
<g id="graph0" class="graph" transform="scale(1 1) rotate(0) translate(4 830)">
<title>models_diagram</title>
<polygon fill="white" stroke="white" points="-4,5 -4,-830 2197,-830 2197,5 -4,5"/>
<!-- _diagram_info -->
<g id="node1" class="node"><title>_diagram_info</title>
<text text-anchor="start" x="1119.31" y="-809" font-family="Times,serif" font-size="13.00">Models diagram</text>
<text text-anchor="start" x="1119.31" y="-793.4" font-family="Times,serif" font-size="13.00">Date: Aug 17 2013 &#45; 20:06</text>
<text text-anchor="start" x="1119.31" y="-777.8" font-family="Times,serif" font-size="13.00">Migration version: 20130626163929</text>
<text text-anchor="start" x="1119.31" y="-762.2" font-family="Times,serif" font-size="13.00">Generated by RailRoady 1.1.1</text>
<text text-anchor="start" x="1119.31" y="-746.6" font-family="Times,serif" font-size="13.00">http://railroady.prestonlee.com</text>
</g>
<!-- Assignment -->
<g id="node2" class="node"><title>Assignment</title>
<ellipse fill="none" stroke="black" cx="809" cy="-462" rx="57.2639" ry="18"/>
<text text-anchor="middle" x="809" y="-456.4" font-family="Times,serif" font-size="14.00">Assignment</text>
</g>
<!-- Attendance -->
<g id="node5" class="node"><title>Attendance</title>
<ellipse fill="none" stroke="black" cx="810" cy="-388" rx="55.0101" ry="18"/>
<text text-anchor="middle" x="810" y="-382.4" font-family="Times,serif" font-size="14.00">Attendance</text>
</g>
<!-- Assignment&#45;&gt;Attendance -->
<g id="edge10" class="edge"><title>Assignment&#45;&gt;Attendance</title>
<path fill="none" stroke="black" d="M809.237,-443.937C809.394,-432.626 809.6,-417.828 809.758,-406.441"/>
</g>
<!-- Grade -->
<g id="node20" class="node"><title>Grade</title>
<ellipse fill="none" stroke="black" cx="682" cy="-166" rx="34.4401" ry="18"/>
<text text-anchor="middle" x="682" y="-160.4" font-family="Times,serif" font-size="14.00">Grade</text>
</g>
<!-- Assignment&#45;&gt;Grade -->
<g id="edge1" class="edge"><title>Assignment&#45;&gt;Grade</title>
<path fill="none" stroke="#3e8b76" d="M744.796,-457.203C676.159,-449.293 570.538,-425.169 521,-352 488.061,-303.348 515.796,-272.982 545,-222 563.565,-189.591 605.388,-176.257 637.974,-170.783"/>
<ellipse fill="none" stroke="#3e8b76" cx="749" cy="-457.658" rx="4" ry="4"/>
<polygon fill="#3e8b76" stroke="#3e8b76" points="638.296,-170.735 648.849,-173.719 643.242,-170.002 648.188,-169.268 648.188,-169.268 648.188,-169.268 643.242,-170.002 647.528,-164.817 638.296,-170.735 638.296,-170.735"/>
</g>
<!-- Group -->
<g id="node23" class="node"><title>Group</title>
<ellipse fill="none" stroke="black" cx="701" cy="-388" rx="35.5667" ry="18"/>
<text text-anchor="middle" x="701" y="-382.4" font-family="Times,serif" font-size="14.00">Group</text>
</g>
<!-- Assignment&#45;&gt;Group -->
<g id="edge2" class="edge"><title>Assignment&#45;&gt;Group</title>
<path fill="none" stroke="#961c70" d="M778.607,-440.738C763.458,-430.639 745.222,-418.481 730.234,-408.49"/>
<ellipse fill="none" stroke="#961c70" cx="782.237" cy="-443.158" rx="4.00002" ry="4.00002"/>
<polygon fill="#961c70" stroke="#961c70" points="730.154,-408.436 724.33,-399.145 725.994,-405.663 721.833,-402.889 721.833,-402.889 721.833,-402.889 725.994,-405.663 719.337,-406.633 730.154,-408.436 730.154,-408.436"/>
</g>
<!-- AssignmentSubmission -->
<g id="node3" class="node"><title>AssignmentSubmission</title>
<ellipse fill="none" stroke="black" cx="929" cy="-240" rx="101.882" ry="18"/>
<text text-anchor="middle" x="929" y="-234.4" font-family="Times,serif" font-size="14.00">AssignmentSubmission</text>
</g>
<!-- AssignmentSubmission&#45;&gt;Grade -->
<g id="edge3" class="edge"><title>AssignmentSubmission&#45;&gt;Grade</title>
<path fill="none" stroke="#89b106" d="M870.556,-221.964C823.672,-208.297 759.282,-189.528 719.18,-177.838"/>
<ellipse fill="none" stroke="#89b106" cx="874.58" cy="-223.137" rx="4.00001" ry="4.00001"/>
<ellipse fill="#89b106" stroke="#89b106" cx="715.092" cy="-176.646" rx="4.00001" ry="4.00001"/>
</g>
<!-- AssignmentType -->
<g id="node4" class="node"><title>AssignmentType</title>
<ellipse fill="none" stroke="black" cx="1150" cy="-536" rx="76.0159" ry="18"/>
<text text-anchor="middle" x="1150" y="-530.4" font-family="Times,serif" font-size="14.00">AssignmentType</text>
</g>
<!-- AssignmentType&#45;&gt;Assignment -->
<g id="edge5" class="edge"><title>AssignmentType&#45;&gt;Assignment</title>
<path fill="none" stroke="#d12971" d="M1087.22,-521.743C1023.6,-508.311 926.095,-487.724 865.02,-474.828"/>
<ellipse fill="none" stroke="#d12971" cx="1091.3" cy="-522.606" rx="4.00001" ry="4.00001"/>
<polygon fill="#d12971" stroke="#d12971" points="864.955,-474.815 856.1,-468.346 860.062,-473.782 855.17,-472.749 855.17,-472.749 855.17,-472.749 860.062,-473.782 854.241,-477.151 864.955,-474.815 864.955,-474.815"/>
</g>
<!-- AssignmentType&#45;&gt;Grade -->
<g id="edge6" class="edge"><title>AssignmentType&#45;&gt;Grade</title>
<path fill="none" stroke="#dc5033" d="M1124.33,-511.57C1103.42,-492.769 1072.89,-465.981 1045,-444 933.417,-356.045 896.163,-346.486 785,-258 756.817,-235.566 726.056,-207.947 705.557,-189.058"/>
<polygon fill="#dc5033" stroke="#dc5033" points="1124.43,-511.657 1128.84,-521.698 1128.14,-515.008 1131.85,-518.358 1131.85,-518.358 1131.85,-518.358 1128.14,-515.008 1134.87,-515.018 1124.43,-511.657 1124.43,-511.657"/>
<polygon fill="#dc5033" stroke="#dc5033" points="705.305,-188.824 701.024,-178.728 701.636,-185.427 697.967,-182.03 697.967,-182.03 697.967,-182.03 701.636,-185.427 694.91,-185.332 705.305,-188.824 705.305,-188.824"/>
</g>
<!-- ScoreLevel -->
<g id="node26" class="node"><title>ScoreLevel</title>
<ellipse fill="none" stroke="black" cx="1266" cy="-462" rx="55.0101" ry="18"/>
<text text-anchor="middle" x="1266" y="-456.4" font-family="Times,serif" font-size="14.00">ScoreLevel</text>
</g>
<!-- AssignmentType&#45;&gt;ScoreLevel -->
<g id="edge8" class="edge"><title>AssignmentType&#45;&gt;ScoreLevel</title>
<path fill="none" stroke="#ce3256" d="M1182.92,-514.569C1198.5,-504.898 1217.07,-493.369 1232.7,-483.668"/>
<ellipse fill="none" stroke="#ce3256" cx="1179.14" cy="-516.911" rx="4.00002" ry="4.00002"/>
<polygon fill="#ce3256" stroke="#ce3256" points="1233.02,-483.469 1243.89,-482.018 1237.27,-480.832 1241.52,-478.195 1241.52,-478.195 1241.52,-478.195 1237.27,-480.832 1239.15,-474.372 1233.02,-483.469 1233.02,-483.469"/>
</g>
<!-- StudentAssignmentTypeWeight -->
<g id="node27" class="node"><title>StudentAssignmentTypeWeight</title>
<ellipse fill="none" stroke="black" cx="1565" cy="-240" rx="133.261" ry="18"/>
<text text-anchor="middle" x="1565" y="-234.4" font-family="Times,serif" font-size="14.00">StudentAssignmentTypeWeight</text>
</g>
<!-- AssignmentType&#45;&gt;StudentAssignmentTypeWeight -->
<g id="edge7" class="edge"><title>AssignmentType&#45;&gt;StudentAssignmentTypeWeight</title>
<path fill="none" stroke="#4bc506" d="M1159.94,-510.575C1168.82,-490.923 1183.31,-463.469 1202,-444 1290.71,-351.583 1430.8,-289.764 1508.46,-260.518"/>
<ellipse fill="none" stroke="#4bc506" cx="1158.31" cy="-514.289" rx="4.00002" ry="4.00002"/>
<polygon fill="#4bc506" stroke="#4bc506" points="1508.7,-260.429 1519.64,-261.162 1513.38,-258.687 1518.07,-256.945 1518.07,-256.945 1518.07,-256.945 1513.38,-258.687 1516.5,-252.727 1508.7,-260.429 1508.7,-260.429"/>
<text text-anchor="middle" x="1333.5" y="-382.4" font-family="Times,serif" font-size="14.00">student_weights</text>
</g>
<!-- Badge -->
<g id="node6" class="node"><title>Badge</title>
<ellipse fill="none" stroke="black" cx="1144" cy="-92" rx="35.5596" ry="18"/>
<text text-anchor="middle" x="1144" y="-86.4" font-family="Times,serif" font-size="14.00">Badge</text>
</g>
<!-- EarnedBadge -->
<g id="node17" class="node"><title>EarnedBadge</title>
<ellipse fill="none" stroke="black" cx="1033" cy="-18" rx="63.0766" ry="18"/>
<text text-anchor="middle" x="1033" y="-12.4" font-family="Times,serif" font-size="14.00">EarnedBadge</text>
</g>
<!-- Badge&#45;&gt;EarnedBadge -->
<g id="edge11" class="edge"><title>Badge&#45;&gt;EarnedBadge</title>
<path fill="none" stroke="#0c22b7" d="M1116.21,-72.9732C1100.91,-63.0504 1081.84,-50.6771 1065.81,-40.2817"/>
<ellipse fill="none" stroke="#0c22b7" cx="1119.77" cy="-75.2806" rx="4.00002" ry="4.00002"/>
<polygon fill="#0c22b7" stroke="#0c22b7" points="1065.65,-40.1801 1059.71,-30.9628 1061.46,-37.4591 1057.26,-34.7381 1057.26,-34.7381 1057.26,-34.7381 1061.46,-37.4591 1054.81,-38.5135 1065.65,-40.1801 1065.65,-40.1801"/>
</g>
<!-- Element -->
<g id="node18" class="node"><title>Element</title>
<ellipse fill="none" stroke="black" cx="2062" cy="-18" rx="43.3212" ry="18"/>
<text text-anchor="middle" x="2062" y="-12.4" font-family="Times,serif" font-size="14.00">Element</text>
</g>
<!-- Badge&#45;&gt;Element -->
<g id="edge12" class="edge"><title>Badge&#45;&gt;Element</title>
<path fill="none" stroke="#88a34f" d="M1187.24,-87.6087C1338.65,-75.7335 1844.65,-36.0472 2009.55,-23.1134"/>
<ellipse fill="none" stroke="#88a34f" cx="1182.85" cy="-87.9526" rx="4" ry="4"/>
<polygon fill="#88a34f" stroke="#88a34f" points="2009.95,-23.0828 2020.27,-26.787 2014.93,-22.6918 2019.91,-22.3008 2019.91,-22.3008 2019.91,-22.3008 2014.93,-22.6918 2019.56,-17.8146 2009.95,-23.0828 2009.95,-23.0828"/>
</g>
<!-- BadgeSet -->
<g id="node7" class="node"><title>BadgeSet</title>
<ellipse fill="none" stroke="black" cx="1114" cy="-684" rx="48.0704" ry="18"/>
<text text-anchor="middle" x="1114" y="-678.4" font-family="Times,serif" font-size="14.00">BadgeSet</text>
</g>
<!-- BadgeSet&#45;&gt;Badge -->
<g id="edge14" class="edge"><title>BadgeSet&#45;&gt;Badge</title>
<path fill="none" stroke="#4e598d" d="M1101.14,-658.612C1083.85,-626.122 1051.81,-567.036 1022,-518 975.509,-441.531 967.781,-419.172 911,-350 874.111,-305.061 840.395,-311.655 818,-258 811.837,-243.235 809.005,-235.232 818,-222 851.388,-172.881 1023.32,-123.685 1103.16,-103.074"/>
<ellipse fill="none" stroke="#4e598d" cx="1103.13" cy="-662.361" rx="4.00002" ry="4.00002"/>
<polygon fill="#4e598d" stroke="#4e598d" points="1103.2,-103.066 1114,-104.948 1108.04,-101.827 1112.88,-100.588 1112.88,-100.588 1112.88,-100.588 1108.04,-101.827 1111.77,-96.2286 1103.2,-103.066 1103.2,-103.066"/>
</g>
<!-- Course -->
<g id="node10" class="node"><title>Course</title>
<ellipse fill="none" stroke="black" cx="875" cy="-610" rx="38.0929" ry="18"/>
<text text-anchor="middle" x="875" y="-604.4" font-family="Times,serif" font-size="14.00">Course</text>
</g>
<!-- BadgeSet&#45;&gt;Course -->
<g id="edge15" class="edge"><title>BadgeSet&#45;&gt;Course</title>
<path fill="none" stroke="#cc7284" d="M1083.97,-662.262C1074.14,-656.257 1062.93,-650.197 1052,-646 1009.68,-629.75 958.647,-620.688 922.273,-615.879"/>
<polygon fill="#cc7284" stroke="#cc7284" points="1084.11,-662.353 1090.15,-671.507 1088.33,-665.03 1092.56,-667.706 1092.56,-667.706 1092.56,-667.706 1088.33,-665.03 1094.97,-663.905 1084.11,-662.353 1084.11,-662.353"/>
<polygon fill="#cc7284" stroke="#cc7284" points="921.874,-615.829 912.516,-610.112 916.913,-615.203 911.952,-614.577 911.952,-614.577 911.952,-614.577 916.913,-615.203 911.389,-619.042 921.874,-615.829 921.874,-615.829"/>
</g>
<!-- Challenge -->
<g id="node8" class="node"><title>Challenge</title>
<ellipse fill="none" stroke="black" cx="1598" cy="-684" rx="50.2819" ry="18"/>
<text text-anchor="middle" x="1598" y="-678.4" font-family="Times,serif" font-size="14.00">Challenge</text>
</g>
<!-- ChallengeGrade -->
<g id="node9" class="node"><title>ChallengeGrade</title>
<ellipse fill="none" stroke="black" cx="1766" cy="-314" rx="73.1694" ry="18"/>
<text text-anchor="middle" x="1766" y="-308.4" font-family="Times,serif" font-size="14.00">ChallengeGrade</text>
</g>
<!-- Course&#45;&gt;Assignment -->
<g id="edge22" class="edge"><title>Course&#45;&gt;Assignment</title>
<path fill="none" stroke="#f7a69d" d="M864.604,-582.638C857.242,-564.347 846.946,-539.502 837,-518 832.593,-508.473 827.459,-498.183 822.799,-489.109"/>
<polygon fill="#f7a69d" stroke="#f7a69d" points="864.66,-582.777 864.193,-593.733 866.515,-587.42 868.371,-592.063 868.371,-592.063 868.371,-592.063 866.515,-587.42 872.55,-590.393 864.66,-582.777 864.66,-582.777"/>
<polygon fill="#f7a69d" stroke="#f7a69d" points="822.77,-489.053 822.159,-478.104 820.467,-484.614 818.165,-480.176 818.165,-480.176 818.165,-480.176 820.467,-484.614 814.17,-482.248 822.77,-489.053 822.77,-489.053"/>
</g>
<!-- Course&#45;&gt;AssignmentSubmission -->
<g id="edge24" class="edge"><title>Course&#45;&gt;AssignmentSubmission</title>
<path fill="none" stroke="#49ae4b" d="M885.441,-582.606C889.858,-569.172 894,-552.453 894,-537 894,-537 894,-537 894,-387 894,-344.331 908.311,-296.533 918.631,-267.612"/>
<polygon fill="#49ae4b" stroke="#49ae4b" points="885.397,-582.732 877.831,-590.669 883.736,-587.448 882.075,-592.164 882.075,-592.164 882.075,-592.164 883.736,-587.448 886.319,-593.659 885.397,-582.732 885.397,-582.732"/>
<polygon fill="#49ae4b" stroke="#49ae4b" points="918.637,-267.596 926.309,-259.761 920.361,-262.902 922.085,-258.209 922.085,-258.209 922.085,-258.209 920.361,-262.902 917.861,-256.657 918.637,-267.596 918.637,-267.596"/>
</g>
<!-- Course&#45;&gt;AssignmentType -->
<g id="edge21" class="edge"><title>Course&#45;&gt;AssignmentType</title>
<path fill="none" stroke="#912fe6" d="M916.701,-599.629C946.201,-592.863 986.637,-583.315 1022,-574 1046.06,-567.661 1072.51,-560.116 1095.08,-553.497"/>
<ellipse fill="none" stroke="#912fe6" cx="912.584" cy="-600.569" rx="4.00001" ry="4.00001"/>
<polygon fill="#912fe6" stroke="#912fe6" points="1095.24,-553.452 1106.1,-554.944 1100.03,-552.039 1104.83,-550.627 1104.83,-550.627 1104.83,-550.627 1100.03,-552.039 1103.56,-546.31 1095.24,-553.452 1095.24,-553.452"/>
</g>
<!-- Course&#45;&gt;Badge -->
<g id="edge25" class="edge"><title>Course&#45;&gt;Badge</title>
<path fill="none" stroke="#a0662d" d="M921.774,-603.484C1016.91,-592.044 1224.85,-565.818 1235,-554 1245.42,-541.862 1240.6,-532.988 1235,-518 1227.17,-497.046 1209.83,-500.954 1202,-480 1183.95,-431.682 1206.23,-409.834 1239,-370 1264.87,-338.557 1366.05,-294.545 1384,-258 1427.4,-169.647 1266,-120.254 1186.19,-101.659"/>
<polygon fill="#a0662d" stroke="#a0662d" points="921.496,-603.517 911.032,-600.239 916.532,-604.112 911.567,-604.707 911.567,-604.707 911.567,-604.707 916.532,-604.112 912.103,-609.175 921.496,-603.517 921.496,-603.517"/>
<polygon fill="#a0662d" stroke="#a0662d" points="1186.17,-101.655 1177.42,-95.0531 1181.3,-100.548 1176.42,-99.4415 1176.42,-99.4415 1176.42,-99.4415 1181.3,-100.548 1175.42,-103.83 1186.17,-101.655 1186.17,-101.655"/>
</g>
<!-- CourseGradeSchemeElement -->
<g id="node12" class="node"><title>CourseGradeSchemeElement</title>
<ellipse fill="none" stroke="black" cx="191" cy="-536" rx="124.598" ry="18"/>
<text text-anchor="middle" x="191" y="-530.4" font-family="Times,serif" font-size="14.00">CourseGradeSchemeElement</text>
</g>
<!-- Course&#45;&gt;CourseGradeSchemeElement -->
<g id="edge29" class="edge"><title>Course&#45;&gt;CourseGradeSchemeElement</title>
<path fill="none" stroke="#ced629" d="M826.74,-606.374C745.079,-601.666 574.517,-590.696 431,-574 379.902,-568.055 322.989,-559.372 277.414,-551.911"/>
<polygon fill="#ced629" stroke="#ced629" points="827.208,-606.4 836.935,-611.462 832.2,-606.685 837.192,-606.97 837.192,-606.97 837.192,-606.97 832.2,-606.685 837.448,-602.477 827.208,-606.4 827.208,-606.4"/>
<polygon fill="#ced629" stroke="#ced629" points="277.142,-551.866 268.007,-545.8 272.209,-551.053 267.275,-550.24 267.275,-550.24 267.275,-550.24 272.209,-551.053 266.544,-554.681 277.142,-551.866 277.142,-551.866"/>
</g>
<!-- CourseMembership -->
<g id="node13" class="node"><title>CourseMembership</title>
<ellipse fill="none" stroke="black" cx="1288" cy="-240" rx="87.3116" ry="18"/>
<text text-anchor="middle" x="1288" y="-234.4" font-family="Times,serif" font-size="14.00">CourseMembership</text>
</g>
<!-- Course&#45;&gt;CourseMembership -->
<g id="edge19" class="edge"><title>Course&#45;&gt;CourseMembership</title>
<path fill="none" stroke="#f2c02e" d="M904.673,-590.796C920.634,-580.589 940.393,-567.269 957,-554 1080.38,-455.42 1212.67,-320.196 1264.9,-265.468"/>
<ellipse fill="none" stroke="#f2c02e" cx="901.011" cy="-593.115" rx="4.00002" ry="4.00002"/>
<polygon fill="#f2c02e" stroke="#f2c02e" points="1265.12,-265.236 1275.28,-261.094 1268.57,-261.614 1272.02,-257.992 1272.02,-257.992 1272.02,-257.992 1268.57,-261.614 1268.76,-254.89 1265.12,-265.236 1265.12,-265.236"/>
</g>
<!-- Course&#45;&gt;EarnedBadge -->
<g id="edge26" class="edge"><title>Course&#45;&gt;EarnedBadge</title>
<path fill="none" stroke="#0adb06" d="M827.613,-604.166C758.024,-596.329 632.388,-579.15 595,-554 515.692,-500.652 345,-299.581 345,-204 345,-204 345,-204 345,-91 345,-29.7021 782.58,-20.382 959.793,-19.1209"/>
<polygon fill="#0adb06" stroke="#0adb06" points="827.928,-604.201 837.373,-609.772 832.898,-604.75 837.867,-605.299 837.867,-605.299 837.867,-605.299 832.898,-604.75 838.362,-600.826 827.928,-604.201 827.928,-604.201"/>
<polygon fill="#0adb06" stroke="#0adb06" points="959.815,-19.1208 969.844,-23.5561 964.815,-19.0885 969.815,-19.0562 969.815,-19.0562 969.815,-19.0562 964.815,-19.0885 969.785,-14.5563 959.815,-19.1208 959.815,-19.1208"/>
</g>
<!-- Course&#45;&gt;Grade -->
<g id="edge23" class="edge"><title>Course&#45;&gt;Grade</title>
<path fill="none" stroke="#712209" d="M827.759,-603.608C789.437,-598.418 734.363,-589.093 688,-574 591.112,-542.459 582.179,-494.681 532,-406 491.655,-334.699 471.346,-287.161 521,-222 548.246,-186.245 599.999,-173.564 637.49,-169.159"/>
<polygon fill="#712209" stroke="#712209" points="828.188,-603.664 837.518,-609.425 833.145,-604.314 838.103,-604.963 838.103,-604.963 838.103,-604.963 833.145,-604.314 838.688,-600.501 828.188,-603.664 828.188,-603.664"/>
<polygon fill="#712209" stroke="#712209" points="637.706,-169.137 648.11,-172.6 642.68,-168.63 647.654,-168.124 647.654,-168.124 647.654,-168.124 642.68,-168.63 647.198,-163.647 637.706,-169.137 637.706,-169.137"/>
</g>
<!-- GradeScheme -->
<g id="node21" class="node"><title>GradeScheme</title>
<ellipse fill="none" stroke="black" cx="475" cy="-536" rx="65.295" ry="18"/>
<text text-anchor="middle" x="475" y="-530.4" font-family="Times,serif" font-size="14.00">GradeScheme</text>
</g>
<!-- Course&#45;&gt;GradeScheme -->
<g id="edge27" class="edge"><title>Course&#45;&gt;GradeScheme</title>
<path fill="none" stroke="#ccebe6" d="M828.483,-608.687C765.223,-607.195 649.053,-600.646 554,-574 539.566,-569.954 524.485,-563.506 511.413,-557.118"/>
<ellipse fill="none" stroke="#ccebe6" cx="832.678" cy="-608.775" rx="4" ry="4"/>
<polygon fill="#ccebe6" stroke="#ccebe6" points="511.216,-557.018 504.317,-548.495 506.753,-554.765 502.289,-552.512 502.289,-552.512 502.289,-552.512 506.753,-554.765 500.261,-556.529 511.216,-557.018 511.216,-557.018"/>
</g>
<!-- GradeSchemeElement -->
<g id="node22" class="node"><title>GradeSchemeElement</title>
<ellipse fill="none" stroke="black" cx="220" cy="-92" rx="97.061" ry="18"/>
<text text-anchor="middle" x="220" y="-86.4" font-family="Times,serif" font-size="14.00">GradeSchemeElement</text>
</g>
<!-- Course&#45;&gt;GradeSchemeElement -->
<g id="edge28" class="edge"><title>Course&#45;&gt;GradeSchemeElement</title>
<path fill="none" stroke="#0da54c" d="M826.944,-607.443C721.906,-603.397 475.321,-590.226 401,-554 327.542,-518.194 269,-507.72 269,-426 269,-426 269,-426 269,-165 269,-146.969 258.368,-130.114 247.008,-117.251"/>
<polygon fill="#0da54c" stroke="#0da54c" points="826.962,-607.443 836.787,-612.314 831.958,-607.63 836.955,-607.817 836.955,-607.817 836.955,-607.817 831.958,-607.63 837.123,-603.32 826.962,-607.443 826.962,-607.443"/>
<polygon fill="#0da54c" stroke="#0da54c" points="246.809,-117.041 243.196,-106.687 243.37,-113.412 239.93,-109.783 239.93,-109.783 239.93,-109.783 243.37,-113.412 236.664,-112.878 246.809,-117.041 246.809,-117.041"/>
</g>
<!-- Course&#45;&gt;Group -->
<g id="edge30" class="edge"><title>Course&#45;&gt;Group</title>
<path fill="none" stroke="#6ccf5e" d="M830.318,-603.794C774.347,-596.248 683.292,-580.228 663,-554 630.967,-512.595 661.89,-448.949 683.681,-414.043"/>
<ellipse fill="none" stroke="#6ccf5e" cx="834.343" cy="-604.324" rx="4.00001" ry="4.00001"/>
<polygon fill="#6ccf5e" stroke="#6ccf5e" points="683.83,-413.812 693.033,-407.85 686.541,-409.611 689.253,-405.41 689.253,-405.41 689.253,-405.41 686.541,-409.611 685.472,-402.969 683.83,-413.812 683.83,-413.812"/>
</g>
<!-- Team -->
<g id="node28" class="node"><title>Team</title>
<ellipse fill="none" stroke="black" cx="1626" cy="-388" rx="32.019" ry="18"/>
<text text-anchor="middle" x="1626" y="-382.4" font-family="Times,serif" font-size="14.00">Team</text>
</g>
<!-- Course&#45;&gt;Team -->
<g id="edge31" class="edge"><title>Course&#45;&gt;Team</title>
<path fill="none" stroke="#76655f" d="M921.14,-606.911C995.523,-602.581 1145.95,-589.82 1268,-554 1395.47,-516.591 1535.46,-441.045 1595.7,-406.706"/>
<ellipse fill="none" stroke="#76655f" cx="916.879" cy="-607.151" rx="4" ry="4"/>
<polygon fill="#76655f" stroke="#76655f" points="1595.99,-406.537 1606.91,-405.464 1600.33,-404.049 1604.67,-401.561 1604.67,-401.561 1604.67,-401.561 1600.33,-404.049 1602.43,-397.658 1595.99,-406.537 1595.99,-406.537"/>
</g>
<!-- User -->
<g id="node31" class="node"><title>User</title>
<ellipse fill="none" stroke="black" cx="1135" cy="-314" rx="28.9087" ry="18"/>
<text text-anchor="middle" x="1135" y="-308.4" font-family="Times,serif" font-size="14.00">User</text>
</g>
<!-- Course&#45;&gt;User -->
<g id="edge20" class="edge"><title>Course&#45;&gt;User</title>
<path fill="none" stroke="#53c381" d="M897.102,-585.795C900.767,-581.88 904.508,-577.841 908,-574 985.999,-488.202 1076.09,-383.764 1115.19,-338.163"/>
<polygon fill="#53c381" stroke="#53c381" points="897.093,-585.804 886.961,-589.999 893.665,-589.444 890.237,-593.084 890.237,-593.084 890.237,-593.084 893.665,-589.444 893.513,-596.169 897.093,-585.804 897.093,-585.804"/>
<polygon fill="#53c381" stroke="#53c381" points="1115.38,-337.945 1125.3,-333.279 1118.63,-334.148 1121.89,-330.351 1121.89,-330.351 1121.89,-330.351 1118.63,-334.148 1118.47,-327.423 1115.38,-337.945 1115.38,-337.945"/>
</g>
<!-- TeamAssignment -->
<g id="node33" class="node"><title>TeamAssignment</title>
<ellipse fill="none" stroke="black" cx="750" cy="-536" rx="78.2264" ry="18"/>
<text text-anchor="middle" x="750" y="-530.4" font-family="Times,serif" font-size="14.00">TeamAssignment</text>
</g>
<!-- Course&#45;&gt;TeamAssignment -->
<g id="edge32" class="edge"><title>Course&#45;&gt;TeamAssignment</title>
<path fill="none" stroke="#efef46" d="M844.594,-591.486C827.117,-581.42 805.045,-568.706 786.619,-558.092"/>
<ellipse fill="none" stroke="#efef46" cx="848.315" cy="-593.63" rx="4.00002" ry="4.00002"/>
<polygon fill="#efef46" stroke="#efef46" points="786.567,-558.063 780.148,-549.172 782.234,-555.567 777.902,-553.071 777.902,-553.071 777.902,-553.071 782.234,-555.567 775.656,-556.971 786.567,-558.063 786.567,-558.063"/>
</g>
<!-- CourseGradeScheme -->
<g id="node11" class="node"><title>CourseGradeScheme</title>
<ellipse fill="none" stroke="black" cx="824" cy="-684" rx="92.3319" ry="18"/>
<text text-anchor="middle" x="824" y="-678.4" font-family="Times,serif" font-size="14.00">CourseGradeScheme</text>
</g>
<!-- CourseGradeScheme&#45;&gt;Course -->
<g id="edge34" class="edge"><title>CourseGradeScheme&#45;&gt;Course</title>
<path fill="none" stroke="#ea9e52" d="M840.755,-659.346C846.071,-651.841 851.964,-643.522 857.341,-635.93"/>
<ellipse fill="none" stroke="#ea9e52" cx="838.398" cy="-662.673" rx="4.00002" ry="4.00002"/>
<polygon fill="#ea9e52" stroke="#ea9e52" points="857.571,-635.605 867.024,-630.046 860.461,-631.525 863.352,-627.445 863.352,-627.445 863.352,-627.445 860.461,-631.525 859.679,-624.844 857.571,-635.605 857.571,-635.605"/>
</g>
<!-- CourseGradeScheme&#45;&gt;CourseGradeSchemeElement -->
<g id="edge35" class="edge"><title>CourseGradeScheme&#45;&gt;CourseGradeSchemeElement</title>
<path fill="none" stroke="#384547" d="M758.871,-667.978C639.975,-640.555 388.569,-582.569 264.048,-553.848"/>
<ellipse fill="none" stroke="#384547" cx="762.811" cy="-668.887" rx="4.00001" ry="4.00001"/>
<polygon fill="#384547" stroke="#384547" points="263.96,-553.828 255.227,-547.196 259.088,-552.704 254.216,-551.581 254.216,-551.581 254.216,-551.581 259.088,-552.704 253.205,-555.966 263.96,-553.828 263.96,-553.828"/>
</g>
<!-- CriteriaLevel -->
<g id="node14" class="node"><title>CriteriaLevel</title>
<ellipse fill="none" stroke="black" cx="1843" cy="-536" rx="62.2702" ry="18"/>
<text text-anchor="middle" x="1843" y="-530.4" font-family="Times,serif" font-size="14.00">CriteriaLevel</text>
</g>
<!-- Criterium -->
<g id="node15" class="node"><title>Criterium</title>
<ellipse fill="none" stroke="black" cx="1920" cy="-610" rx="48.3764" ry="18"/>
<text text-anchor="middle" x="1920" y="-604.4" font-family="Times,serif" font-size="14.00">Criterium</text>
</g>
<!-- Criterium&#45;&gt;CriteriaLevel -->
<g id="edge40" class="edge"><title>Criterium&#45;&gt;CriteriaLevel</title>
<path fill="none" stroke="#e70393" d="M1897.04,-587.532C1887.92,-578.999 1877.39,-569.157 1868.07,-560.439"/>
<ellipse fill="none" stroke="#e70393" cx="1899.99" cy="-590.289" rx="4.00002" ry="4.00002"/>
<polygon fill="#e70393" stroke="#e70393" points="1867.88,-560.264 1863.65,-550.147 1864.23,-556.849 1860.57,-553.434 1860.57,-553.434 1860.57,-553.434 1864.23,-556.849 1857.5,-556.721 1867.88,-560.264 1867.88,-560.264"/>
</g>
<!-- Dashboard -->
<g id="node16" class="node"><title>Dashboard</title>
<ellipse fill="none" stroke="black" cx="2001" cy="-684" rx="52.3074" ry="18"/>
<text text-anchor="middle" x="2001" y="-678.4" font-family="Times,serif" font-size="14.00">Dashboard</text>
</g>
<!-- Faq -->
<g id="node19" class="node"><title>Faq</title>
<ellipse fill="none" stroke="black" cx="2137" cy="-684" rx="27" ry="18"/>
<text text-anchor="middle" x="2137" y="-678.4" font-family="Times,serif" font-size="14.00">Faq</text>
</g>
<!-- Grade&#45;&gt;Badge -->
<g id="edge48" class="edge"><title>Grade&#45;&gt;Badge</title>
<path fill="none" stroke="#bf8f60" d="M724.467,-158.382C812.123,-144.721 1012.26,-113.531 1100.66,-99.7545"/>
<polygon fill="#bf8f60" stroke="#bf8f60" points="724.368,-158.397 713.794,-155.491 719.427,-159.167 714.487,-159.937 714.487,-159.937 714.487,-159.937 719.427,-159.167 715.18,-164.383 724.368,-158.397 724.368,-158.397"/>
<polygon fill="#bf8f60" stroke="#bf8f60" points="1100.74,-99.7421 1111.31,-102.648 1105.68,-98.9721 1110.62,-98.2022 1110.62,-98.2022 1110.62,-98.2022 1105.68,-98.9721 1109.93,-93.7558 1100.74,-99.7421 1100.74,-99.7421"/>
</g>
<!-- Grade&#45;&gt;EarnedBadge -->
<g id="edge47" class="edge"><title>Grade&#45;&gt;EarnedBadge</title>
<path fill="none" stroke="#f0fad8" d="M715.849,-150.92C779.839,-124.304 918.474,-66.6378 989.354,-37.1549"/>
<ellipse fill="none" stroke="#f0fad8" cx="711.789" cy="-152.609" rx="4.00001" ry="4.00001"/>
<polygon fill="#f0fad8" stroke="#f0fad8" points="989.657,-37.0286 1000.62,-37.3429 994.274,-35.1083 998.89,-33.188 998.89,-33.188 998.89,-33.188 994.274,-35.1083 997.162,-29.0331 989.657,-37.0286 989.657,-37.0286"/>
</g>
<!-- Grade&#45;&gt;GradeSchemeElement -->
<g id="edge46" class="edge"><title>Grade&#45;&gt;GradeSchemeElement</title>
<path fill="none" stroke="#530cec" d="M639.411,-158.363C562.82,-146.427 400.638,-121.151 301.905,-105.764"/>
<polygon fill="#530cec" stroke="#530cec" points="639.632,-158.397 648.82,-164.383 644.573,-159.167 649.513,-159.937 649.513,-159.937 649.513,-159.937 644.573,-159.167 650.206,-155.491 639.632,-158.397 639.632,-158.397"/>
<polygon fill="#530cec" stroke="#530cec" points="301.843,-105.755 292.656,-99.7686 296.903,-104.985 291.963,-104.215 291.963,-104.215 291.963,-104.215 296.903,-104.985 291.27,-108.661 301.843,-105.755 301.843,-105.755"/>
</g>
<!-- GradeScheme&#45;&gt;Assignment -->
<g id="edge50" class="edge"><title>GradeScheme&#45;&gt;Assignment</title>
<path fill="none" stroke="#4e2e7b" d="M532.812,-522.537C594.788,-509.177 692.484,-488.117 753.539,-474.956"/>
<ellipse fill="none" stroke="#4e2e7b" cx="528.553" cy="-523.456" rx="4.00001" ry="4.00001"/>
<polygon fill="#4e2e7b" stroke="#4e2e7b" points="753.607,-474.941 764.331,-477.233 758.495,-473.887 763.382,-472.834 763.382,-472.834 763.382,-472.834 758.495,-473.887 762.434,-468.435 753.607,-474.941 753.607,-474.941"/>
</g>
<!-- GradeScheme&#45;&gt;GradeSchemeElement -->
<g id="edge51" class="edge"><title>GradeScheme&#45;&gt;GradeSchemeElement</title>
<path fill="none" stroke="#3ac70d" d="M460.416,-511.08C433.546,-466.393 375.376,-366.717 336,-278 307.316,-213.374 328.64,-182.003 283,-128 278.55,-122.735 273.098,-118.115 267.281,-114.107"/>
<ellipse fill="none" stroke="#3ac70d" cx="462.537" cy="-514.596" rx="4.00002" ry="4.00002"/>
<polygon fill="#3ac70d" stroke="#3ac70d" points="267.053,-113.964 260.955,-104.85 262.812,-111.316 258.571,-108.667 258.571,-108.667 258.571,-108.667 262.812,-111.316 256.187,-112.484 267.053,-113.964 267.053,-113.964"/>
</g>
<!-- Group&#45;&gt;AssignmentSubmission -->
<g id="edge59" class="edge"><title>Group&#45;&gt;AssignmentSubmission</title>
<path fill="none" stroke="#983071" d="M725.336,-367.088C754.715,-343.595 806.151,-304.173 854,-276 862.822,-270.806 872.543,-265.792 881.98,-261.26"/>
<ellipse fill="none" stroke="#983071" cx="722.178" cy="-369.627" rx="4.00002" ry="4.00002"/>
<polygon fill="#983071" stroke="#983071" points="882.223,-261.146 893.188,-260.974 886.75,-259.023 891.277,-256.9 891.277,-256.9 891.277,-256.9 886.75,-259.023 889.366,-252.825 882.223,-261.146 882.223,-261.146"/>
</g>
<!-- Group&#45;&gt;Badge -->
<g id="edge58" class="edge"><title>Group&#45;&gt;Badge</title>
<path fill="none" stroke="#6bc9d6" d="M738.155,-372.948C825.842,-339.774 1038.45,-259.266 1040,-258 1086.58,-219.866 1118.62,-155.12 1133.85,-119.116"/>
<polygon fill="#6bc9d6" stroke="#6bc9d6" points="737.946,-373.027 727.001,-372.356 733.269,-374.796 728.593,-376.565 728.593,-376.565 728.593,-376.565 733.269,-374.796 730.185,-380.774 737.946,-373.027 737.946,-373.027"/>
<polygon fill="#6bc9d6" stroke="#6bc9d6" points="1133.89,-119.016 1141.86,-111.482 1135.8,-114.393 1137.7,-109.769 1137.7,-109.769 1137.7,-109.769 1135.8,-114.393 1133.54,-108.056 1133.89,-119.016 1133.89,-119.016"/>
</g>
<!-- Group&#45;&gt;EarnedBadge -->
<g id="edge57" class="edge"><title>Group&#45;&gt;EarnedBadge</title>
<path fill="none" stroke="#35a137" d="M659.605,-379.805C581.688,-363.631 421,-316.622 421,-204 421,-204 421,-204 421,-91 421,-37.3166 797.222,-23.5532 959.709,-20.1124"/>
<ellipse fill="none" stroke="#35a137" cx="663.86" cy="-380.662" rx="4.00001" ry="4.00001"/>
<polygon fill="#35a137" stroke="#35a137" points="960.098,-20.1045 970.188,-24.3994 965.097,-20.0024 970.096,-19.9003 970.096,-19.9003 970.096,-19.9003 965.097,-20.0024 970.004,-15.4013 960.098,-20.1045 960.098,-20.1045"/>
</g>
<!-- Group&#45;&gt;Grade -->
<g id="edge56" class="edge"><title>Group&#45;&gt;Grade</title>
<path fill="none" stroke="#108459" d="M669.797,-370.534C634.141,-349.738 577.671,-310.266 554,-258 547.399,-243.425 545.198,-235.362 554,-222 572.745,-193.543 609.627,-179.75 639.004,-173.099"/>
<ellipse fill="none" stroke="#108459" cx="673.596" cy="-372.703" rx="4.00002" ry="4.00002"/>
<polygon fill="#108459" stroke="#108459" points="639.246,-173.05 649.948,-175.44 644.143,-172.041 649.04,-171.032 649.04,-171.032 649.04,-171.032 644.143,-172.041 648.133,-166.625 639.246,-173.05 639.246,-173.05"/>
</g>
<!-- GroupMembership -->
<g id="node24" class="node"><title>GroupMembership</title>
<ellipse fill="none" stroke="black" cx="648" cy="-240" rx="84.2867" ry="18"/>
<text text-anchor="middle" x="648" y="-234.4" font-family="Times,serif" font-size="14.00">GroupMembership</text>
</g>
<!-- Group&#45;&gt;GroupMembership -->
<g id="edge54" class="edge"><title>Group&#45;&gt;GroupMembership</title>
<path fill="none" stroke="#947333" d="M692.086,-362.444C682.547,-336.167 667.467,-294.626 657.653,-267.591"/>
<ellipse fill="none" stroke="#947333" cx="693.555" cy="-366.492" rx="4.00001" ry="4.00001"/>
<polygon fill="#947333" stroke="#947333" points="657.584,-267.402 658.402,-256.467 655.878,-262.702 654.172,-258.002 654.172,-258.002 654.172,-258.002 655.878,-262.702 649.942,-259.538 657.584,-267.402 657.584,-267.402"/>
</g>
<!-- Group&#45;&gt;User -->
<g id="edge55" class="edge"><title>Group&#45;&gt;User</title>
<path fill="none" stroke="#37ab3a" d="M736.902,-372.532C739.95,-371.58 743.011,-370.718 746,-370 820.785,-352.046 1015.22,-349.954 1090,-332 1093.91,-331.062 1097.94,-329.876 1101.9,-328.568"/>
<polygon fill="#37ab3a" stroke="#37ab3a" points="736.769,-372.577 725.852,-371.543 732.036,-374.19 727.303,-375.803 727.303,-375.803 727.303,-375.803 732.036,-374.19 728.755,-380.062 736.769,-372.577 736.769,-372.577"/>
<polygon fill="#37ab3a" stroke="#37ab3a" points="1102.11,-328.494 1113.04,-329.377 1106.82,-326.816 1111.53,-325.138 1111.53,-325.138 1111.53,-325.138 1106.82,-326.816 1110.02,-320.899 1102.11,-328.494 1102.11,-328.494"/>
</g>
<!-- Rubric -->
<g id="node25" class="node"><title>Rubric</title>
<ellipse fill="none" stroke="black" cx="1855" cy="-684" rx="36.9811" ry="18"/>
<text text-anchor="middle" x="1855" y="-678.4" font-family="Times,serif" font-size="14.00">Rubric</text>
</g>
<!-- Rubric&#45;&gt;CriteriaLevel -->
<g id="edge63" class="edge"><title>Rubric&#45;&gt;CriteriaLevel</title>
<path fill="none" stroke="#66b14b" d="M1852.77,-655.872C1850.63,-629.785 1847.4,-590.557 1845.25,-564.384"/>
<polygon fill="#66b14b" stroke="#66b14b" points="1852.78,-656 1849.12,-666.335 1853.19,-660.983 1853.6,-665.966 1853.6,-665.966 1853.6,-665.966 1853.19,-660.983 1858.08,-665.598 1852.78,-656 1852.78,-656"/>
<polygon fill="#66b14b" stroke="#66b14b" points="1845.25,-564.344 1848.91,-554.009 1844.84,-559.361 1844.43,-554.378 1844.43,-554.378 1844.43,-554.378 1844.84,-559.361 1839.94,-554.747 1845.25,-564.344 1845.25,-564.344"/>
</g>
<!-- Rubric&#45;&gt;Criterium -->
<g id="edge62" class="edge"><title>Rubric&#45;&gt;Criterium</title>
<path fill="none" stroke="#c651df" d="M1874.97,-660.884C1882.41,-652.64 1890.89,-643.248 1898.46,-634.855"/>
<ellipse fill="none" stroke="#c651df" cx="1872.11" cy="-664.052" rx="4.00002" ry="4.00002"/>
<polygon fill="#c651df" stroke="#c651df" points="1898.69,-634.606 1908.73,-630.199 1902.04,-630.895 1905.39,-627.183 1905.39,-627.183 1905.39,-627.183 1902.04,-630.895 1902.05,-624.168 1898.69,-634.606 1898.69,-634.606"/>
</g>
<!-- Team&#45;&gt;AssignmentSubmission -->
<g id="edge71" class="edge"><title>Team&#45;&gt;AssignmentSubmission</title>
<path fill="none" stroke="#b6795f" d="M1588.4,-379.124C1477.32,-355.856 1149.26,-287.137 1002,-256.291"/>
<ellipse fill="none" stroke="#b6795f" cx="1592.58" cy="-380" rx="4.00001" ry="4.00001"/>
<polygon fill="#b6795f" stroke="#b6795f" points="1001.92,-256.276 993.06,-249.821 997.031,-255.25 992.137,-254.225 992.137,-254.225 992.137,-254.225 997.031,-255.25 991.214,-258.63 1001.92,-256.276 1001.92,-256.276"/>
</g>
<!-- Team&#45;&gt;ChallengeGrade -->
<g id="edge69" class="edge"><title>Team&#45;&gt;ChallengeGrade</title>
<path fill="none" stroke="#b08b18" d="M1656.12,-371.512C1676.83,-360.861 1704.53,-346.613 1726.94,-335.089"/>
<ellipse fill="none" stroke="#b08b18" cx="1652.36" cy="-373.442" rx="4.00002" ry="4.00002"/>
<polygon fill="#b08b18" stroke="#b08b18" points="1726.97,-335.071 1737.92,-334.499 1731.42,-332.784 1735.87,-330.498 1735.87,-330.498 1735.87,-330.498 1731.42,-332.784 1733.81,-326.496 1726.97,-335.071 1726.97,-335.071"/>
</g>
<!-- Team&#45;&gt;EarnedBadge -->
<g id="edge70" class="edge"><title>Team&#45;&gt;EarnedBadge</title>
<path fill="none" stroke="#57c605" d="M1626.07,-361.767C1627.42,-341.76 1632.33,-314.227 1648,-296 1677.11,-262.14 1708.95,-289.09 1741,-258 1759.85,-239.713 1765,-230.264 1765,-204 1765,-204 1765,-204 1765,-91 1765,-25.2815 1291.67,-18.6985 1106.25,-18.6409"/>
<ellipse fill="none" stroke="#57c605" cx="1625.88" cy="-365.835" rx="4" ry="4"/>
<polygon fill="#57c605" stroke="#57c605" points="1106.04,-18.6409 1096.04,-14.1443 1101.04,-18.6426 1096.04,-18.6443 1096.04,-18.6443 1096.04,-18.6443 1101.04,-18.6426 1096.04,-23.1443 1106.04,-18.6409 1106.04,-18.6409"/>
</g>
<!-- TeamMembership -->
<g id="node29" class="node"><title>TeamMembership</title>
<ellipse fill="none" stroke="black" cx="1874" cy="-240" rx="81.2369" ry="18"/>
<text text-anchor="middle" x="1874" y="-234.4" font-family="Times,serif" font-size="14.00">TeamMembership</text>
</g>
<!-- Team&#45;&gt;TeamMembership -->
<g id="edge67" class="edge"><title>Team&#45;&gt;TeamMembership</title>
<path fill="none" stroke="#0c7aad" d="M1635.28,-362.8C1644.41,-342.133 1660.29,-313.111 1683,-296 1702.68,-281.168 1759.86,-265.764 1806.57,-255.045"/>
<ellipse fill="none" stroke="#0c7aad" cx="1633.67" cy="-366.587" rx="4.00002" ry="4.00002"/>
<polygon fill="#0c7aad" stroke="#0c7aad" points="1806.61,-255.037 1817.35,-257.219 1811.48,-253.933 1816.36,-252.83 1816.36,-252.83 1816.36,-252.83 1811.48,-253.933 1815.37,-248.441 1806.61,-255.037 1806.61,-255.037"/>
</g>
<!-- Team&#45;&gt;User -->
<g id="edge68" class="edge"><title>Team&#45;&gt;User</title>
<path fill="none" stroke="#1fd39f" d="M1585.9,-380.007C1540.95,-372.26 1465.85,-359.596 1401,-350 1320.17,-338.04 1225.22,-326.037 1173.45,-319.666"/>
<polygon fill="#1fd39f" stroke="#1fd39f" points="1585.99,-380.021 1595.08,-386.158 1590.91,-380.873 1595.84,-381.724 1595.84,-381.724 1595.84,-381.724 1590.91,-380.873 1596.61,-377.29 1585.99,-380.021 1585.99,-380.021"/>
<polygon fill="#1fd39f" stroke="#1fd39f" points="1173.31,-319.648 1163.93,-313.964 1168.35,-319.04 1163.39,-318.431 1163.39,-318.431 1163.39,-318.431 1168.35,-319.04 1162.84,-322.897 1173.31,-319.648 1173.31,-319.648"/>
</g>
<!-- Theme -->
<g id="node30" class="node"><title>Theme</title>
<ellipse fill="none" stroke="black" cx="972" cy="-684" rx="37.2739" ry="18"/>
<text text-anchor="middle" x="972" y="-678.4" font-family="Times,serif" font-size="14.00">Theme</text>
</g>
<!-- Theme&#45;&gt;Course -->
<g id="edge74" class="edge"><title>Theme&#45;&gt;Course</title>
<path fill="none" stroke="#6b62a5" d="M945.746,-663.513C932.396,-653.603 916.175,-641.563 902.635,-631.512"/>
<ellipse fill="none" stroke="#6b62a5" cx="949.159" cy="-666.046" rx="4.00002" ry="4.00002"/>
<polygon fill="#6b62a5" stroke="#6b62a5" points="902.63,-631.509 897.282,-621.935 898.615,-628.529 894.6,-625.549 894.6,-625.549 894.6,-625.549 898.615,-628.529 891.918,-629.162 902.63,-631.509 902.63,-631.509"/>
</g>
<!-- User&#45;&gt;Assignment -->
<g id="edge79" class="edge"><title>User&#45;&gt;Assignment</title>
<path fill="none" stroke="#5359ee" d="M1101.27,-327.833C1077.75,-336.808 1049.61,-347.601 1044,-350 973.559,-380.134 893.175,-419.127 847.028,-441.97"/>
<polygon fill="#5359ee" stroke="#5359ee" points="1101.32,-327.816 1112.26,-328.459 1105.99,-326.035 1110.66,-324.254 1110.66,-324.254 1110.66,-324.254 1105.99,-326.035 1109.06,-320.049 1101.32,-327.816 1101.32,-327.816"/>
<polygon fill="#5359ee" stroke="#5359ee" points="846.951,-442.009 835.993,-442.422 842.472,-444.231 837.993,-446.453 837.993,-446.453 837.993,-446.453 842.472,-444.231 839.993,-450.484 846.951,-442.009 846.951,-442.009"/>
</g>
<!-- User&#45;&gt;AssignmentSubmission -->
<g id="edge80" class="edge"><title>User&#45;&gt;AssignmentSubmission</title>
<path fill="none" stroke="#43c3eb" d="M1103.64,-299.814C1085.72,-292.456 1062.74,-283.327 1042,-276 1025,-269.997 1006.38,-263.996 989.238,-258.701"/>
<ellipse fill="none" stroke="#43c3eb" cx="1107.8" cy="-301.53" rx="4.00001" ry="4.00001"/>
<polygon fill="#43c3eb" stroke="#43c3eb" points="988.903,-258.599 980.659,-251.368 984.122,-257.135 979.342,-255.67 979.342,-255.67 979.342,-255.67 984.122,-257.135 978.024,-259.973 988.903,-258.599 988.903,-258.599"/>
</g>
<!-- User&#45;&gt;Badge -->
<g id="edge82" class="edge"><title>User&#45;&gt;Badge</title>
<path fill="none" stroke="#7ebde8" d="M1146.57,-287.236C1147.56,-284.173 1148.41,-281.051 1149,-278 1159.63,-222.817 1153.4,-156.681 1148.39,-120.318"/>
<polygon fill="#7ebde8" stroke="#7ebde8" points="1146.54,-287.295 1138.82,-295.076 1144.79,-291.976 1143.03,-296.657 1143.03,-296.657 1143.03,-296.657 1144.79,-291.976 1147.24,-298.238 1146.54,-287.295 1146.54,-287.295"/>
<polygon fill="#7ebde8" stroke="#7ebde8" points="1148.33,-119.93 1151.34,-109.386 1147.61,-114.982 1146.89,-110.034 1146.89,-110.034 1146.89,-110.034 1147.61,-114.982 1142.44,-110.682 1148.33,-119.93 1148.33,-119.93"/>
</g>
<!-- User&#45;&gt;CourseMembership -->
<g id="edge76" class="edge"><title>User&#45;&gt;CourseMembership</title>
<path fill="none" stroke="#641622" d="M1163.04,-297.464C1175.72,-290.621 1190.98,-282.645 1205,-276 1216.26,-270.662 1228.55,-265.256 1240.14,-260.341"/>
<ellipse fill="none" stroke="#641622" cx="1159.41" cy="-299.434" rx="4.00002" ry="4.00002"/>
<polygon fill="#641622" stroke="#641622" points="1240.46,-260.211 1251.42,-260.491 1245.07,-258.276 1249.68,-256.341 1249.68,-256.341 1249.68,-256.341 1245.07,-258.276 1247.94,-252.192 1240.46,-260.211 1240.46,-260.211"/>
</g>
<!-- User&#45;&gt;EarnedBadge -->
<g id="edge81" class="edge"><title>User&#45;&gt;EarnedBadge</title>
<path fill="none" stroke="#11b8e3" d="M1126.48,-288.438C1107.53,-233.812 1062.01,-102.62 1042.33,-45.8898"/>
<ellipse fill="none" stroke="#11b8e3" cx="1127.91" cy="-292.572" rx="4.00001" ry="4.00001"/>
<polygon fill="#11b8e3" stroke="#11b8e3" points="1042.24,-45.6464 1043.22,-34.7238 1040.61,-40.9226 1038.97,-36.1988 1038.97,-36.1988 1038.97,-36.1988 1040.61,-40.9226 1034.72,-37.6738 1042.24,-45.6464 1042.24,-45.6464"/>
</g>
<!-- User&#45;&gt;Grade -->
<g id="edge77" class="edge"><title>User&#45;&gt;Grade</title>
<path fill="none" stroke="#05d1da" d="M1118.39,-290.549C1101.26,-269.202 1072.53,-238.043 1040,-222 985.443,-195.094 808.869,-177.443 725.872,-170.425"/>
<ellipse fill="none" stroke="#05d1da" cx="1121.06" cy="-293.956" rx="4.00002" ry="4.00002"/>
<polygon fill="#05d1da" stroke="#05d1da" points="725.718,-170.412 716.126,-165.099 720.735,-169.998 715.752,-169.583 715.752,-169.583 715.752,-169.583 720.735,-169.998 715.379,-174.068 725.718,-170.412 725.718,-170.412"/>
</g>
<!-- User&#45;&gt;GroupMembership -->
<g id="edge84" class="edge"><title>User&#45;&gt;GroupMembership</title>
<path fill="none" stroke="#4267d9" d="M1099.15,-307.699C1020.69,-296.1 832.286,-268.246 725.417,-252.446"/>
<ellipse fill="none" stroke="#4267d9" cx="1103.11" cy="-308.285" rx="4.00001" ry="4.00001"/>
<polygon fill="#4267d9" stroke="#4267d9" points="725.228,-252.418 715.994,-246.504 720.282,-251.686 715.336,-250.955 715.336,-250.955 715.336,-250.955 720.282,-251.686 714.677,-255.407 725.228,-252.418 725.228,-252.418"/>
</g>
<!-- User&#45;&gt;StudentAssignmentTypeWeight -->
<g id="edge78" class="edge"><title>User&#45;&gt;StudentAssignmentTypeWeight</title>
<path fill="none" stroke="#7074a8" d="M1170.82,-307.001C1236.98,-295.924 1380.16,-271.949 1474.52,-256.15"/>
<ellipse fill="none" stroke="#7074a8" cx="1166.83" cy="-307.671" rx="4.00001" ry="4.00001"/>
<polygon fill="#7074a8" stroke="#7074a8" points="1474.77,-256.108 1485.38,-258.895 1479.7,-255.283 1484.63,-254.457 1484.63,-254.457 1484.63,-254.457 1479.7,-255.283 1483.89,-250.019 1474.77,-256.108 1474.77,-256.108"/>
</g>
<!-- User&#45;&gt;TeamMembership -->
<g id="edge83" class="edge"><title>User&#45;&gt;TeamMembership</title>
<path fill="none" stroke="#8ce513" d="M1171.62,-309.55C1262.35,-300.988 1504.83,-278.01 1707,-258 1734.64,-255.264 1764.86,-252.208 1791.89,-249.451"/>
<ellipse fill="none" stroke="#8ce513" cx="1167.56" cy="-309.934" rx="4" ry="4"/>
<polygon fill="#8ce513" stroke="#8ce513" points="1792.14,-249.426 1802.54,-252.886 1797.11,-248.918 1802.08,-248.41 1802.08,-248.41 1802.08,-248.41 1797.11,-248.918 1801.63,-243.933 1792.14,-249.426 1792.14,-249.426"/>
</g>
<!-- ActiveRecord::Base -->
<g id="node32" class="node"><title>ActiveRecord::Base</title>
<ellipse fill="none" stroke="black" cx="1425" cy="-783" rx="88.2033" ry="18"/>
<text text-anchor="middle" x="1425" y="-777.4" font-family="Times,serif" font-size="14.00">ActiveRecord::Base</text>
</g>
<!-- ActiveRecord::Base&#45;&gt;AssignmentSubmission -->
<g id="edge4" class="edge"><title>ActiveRecord::Base&#45;&gt;AssignmentSubmission</title>
<path fill="none" stroke="black" d="M1393.1,-766.149C1365.5,-749.927 1330,-721.889 1330,-685 1330,-685 1330,-685 1330,-572 1330,-515.111 1361.54,-491.347 1330,-444 1305.7,-407.523 1278.69,-424.589 1239,-406 1174.55,-375.817 1159.85,-365.393 1097,-332 1048.37,-306.163 992.171,-275.57 958.663,-257.253"/>
</g>
<!-- ActiveRecord::Base&#45;&gt;AssignmentType -->
<g id="edge9" class="edge"><title>ActiveRecord::Base&#45;&gt;AssignmentType</title>
<path fill="none" stroke="black" d="M1389.81,-766.383C1371.23,-758.274 1347.98,-748.344 1327,-740 1305.44,-731.427 1296.35,-736.203 1278,-722 1270.01,-715.814 1191.25,-598.674 1161.39,-554.059"/>
</g>
<!-- ActiveRecord::Base&#45;&gt;Badge -->
<g id="edge13" class="edge"><title>ActiveRecord::Base&#45;&gt;Badge</title>
<path fill="none" stroke="black" d="M1430.39,-765.025C1436.01,-745.815 1444,-713.486 1444,-685 1444,-685 1444,-685 1444,-535 1444,-485.617 1415.96,-467.682 1439,-424 1485.98,-334.912 1538.57,-345.996 1626,-296 1634.63,-291.065 1701.67,-266.391 1707,-258 1715.58,-244.496 1716.97,-234.514 1707,-222 1640.06,-137.987 1290.83,-104.242 1178.7,-95.4705"/>
</g>
<!-- ActiveRecord::Base&#45;&gt;BadgeSet -->
<g id="edge16" class="edge"><title>ActiveRecord::Base&#45;&gt;BadgeSet</title>
<path fill="none" stroke="black" d="M1394.04,-766.018C1375.15,-756.961 1350.24,-746.227 1327,-740 1261.72,-722.509 1239.98,-743.795 1176,-722 1161.29,-716.988 1146.28,-708.15 1134.72,-700.369"/>
</g>
<!-- ActiveRecord::Base&#45;&gt;Challenge -->
<g id="edge17" class="edge"><title>ActiveRecord::Base&#45;&gt;Challenge</title>
<path fill="none" stroke="black" d="M1454.7,-765.869C1476.67,-753.885 1507.29,-737.073 1534,-722 1546.85,-714.747 1561.08,-706.544 1572.84,-699.708"/>
</g>
<!-- ActiveRecord::Base&#45;&gt;ChallengeGrade -->
<g id="edge18" class="edge"><title>ActiveRecord::Base&#45;&gt;ChallengeGrade</title>
<path fill="none" stroke="black" d="M1496.81,-772.401C1582.4,-758.902 1714,-730.713 1714,-685 1714,-685 1714,-685 1714,-387 1714,-364.642 1730.68,-344.513 1745.15,-331.26"/>
</g>
<!-- ActiveRecord::Base&#45;&gt;Course -->
<g id="edge33" class="edge"><title>ActiveRecord::Base&#45;&gt;Course</title>
<path fill="none" stroke="black" d="M1394.05,-765.974C1375.17,-756.901 1350.26,-746.167 1327,-740 1209.86,-708.944 1165.53,-755.914 1057,-702 1035.87,-691.505 1038.03,-678.456 1018,-666 982.875,-644.159 937.66,-628.559 907.572,-619.676"/>
</g>
<!-- ActiveRecord::Base&#45;&gt;CourseGradeScheme -->
<g id="edge36" class="edge"><title>ActiveRecord::Base&#45;&gt;CourseGradeScheme</title>
<path fill="none" stroke="black" d="M1395.04,-765.927C1376.09,-756.594 1350.78,-745.603 1327,-740 1192.24,-708.253 1153.39,-739.137 1016,-722 970.524,-716.328 919.618,-706.348 881.655,-698.182"/>
</g>
<!-- ActiveRecord::Base&#45;&gt;CourseGradeSchemeElement -->
<g id="edge37" class="edge"><title>ActiveRecord::Base&#45;&gt;CourseGradeSchemeElement</title>
<path fill="none" stroke="black" d="M1395.54,-765.815C1376.58,-756.31 1351.07,-745.176 1327,-740 1274.9,-728.796 416.804,-743.394 368,-722 286.171,-686.13 223.724,-592.54 200.668,-553.981"/>
</g>
<!-- ActiveRecord::Base&#45;&gt;CourseMembership -->
<g id="edge38" class="edge"><title>ActiveRecord::Base&#45;&gt;CourseMembership</title>
<path fill="none" stroke="black" d="M1437.3,-765.131C1444.92,-753.615 1453.98,-737.66 1458,-722 1491.02,-593.459 1498.81,-542.472 1439,-424 1403.92,-354.505 1338.33,-287.878 1306.41,-257.763"/>
</g>
<!-- ActiveRecord::Base&#45;&gt;CriteriaLevel -->
<g id="edge39" class="edge"><title>ActiveRecord::Base&#45;&gt;CriteriaLevel</title>
<path fill="none" stroke="black" d="M1507.76,-776.498C1595.63,-769.109 1727.12,-753.141 1766,-722 1793.7,-699.818 1826.15,-595.512 1838.19,-554.053"/>
</g>
<!-- ActiveRecord::Base&#45;&gt;Criterium -->
<g id="edge41" class="edge"><title>ActiveRecord::Base&#45;&gt;Criterium</title>
<path fill="none" stroke="black" d="M1511.83,-779.38C1634.24,-773.763 1848.53,-756.249 1901,-702 1920.07,-682.278 1922.19,-648.62 1921.47,-628.232"/>
</g>
<!-- ActiveRecord::Base&#45;&gt;Dashboard -->
<g id="edge42" class="edge"><title>ActiveRecord::Base&#45;&gt;Dashboard</title>
<path fill="none" stroke="black" d="M1513.64,-781.818C1616.95,-779.284 1791.68,-767.737 1934,-722 1949.69,-716.959 1965.9,-708.12 1978.44,-700.346"/>
</g>
<!-- ActiveRecord::Base&#45;&gt;EarnedBadge -->
<g id="edge43" class="edge"><title>ActiveRecord::Base&#45;&gt;EarnedBadge</title>
<path fill="none" stroke="black" d="M1510.22,-778.143C1687.99,-768.955 2082,-742.145 2082,-685 2082,-685 2082,-685 2082,-91 2082,-41.2846 1322.18,-24.0406 1095.87,-20.0071"/>
</g>
<!-- ActiveRecord::Base&#45;&gt;Element -->
<g id="edge44" class="edge"><title>ActiveRecord::Base&#45;&gt;Element</title>
<path fill="none" stroke="black" d="M1512.24,-779.943C1713.27,-774.042 2192,-752.865 2192,-685 2192,-685 2192,-685 2192,-91 2192,-49.5913 2140.9,-31.8042 2102.78,-24.2959"/>
</g>
<!-- ActiveRecord::Base&#45;&gt;Faq -->
<g id="edge45" class="edge"><title>ActiveRecord::Base&#45;&gt;Faq</title>
<path fill="none" stroke="black" d="M1513.01,-781.004C1670.5,-778.095 1993.64,-766.694 2096,-722 2107.07,-717.166 2117.18,-708.127 2124.58,-700.194"/>
</g>
<!-- ActiveRecord::Base&#45;&gt;Grade -->
<g id="edge49" class="edge"><title>ActiveRecord::Base&#45;&gt;Grade</title>
<path fill="none" stroke="black" d="M1395.54,-765.814C1376.58,-756.309 1351.07,-745.175 1327,-740 1222.15,-717.459 469.006,-729.092 362,-722 289.691,-717.208 38,-757.468 38,-685 38,-685 38,-685 38,-572 38,-445.243 176.641,-494.957 283,-426 392.987,-354.691 388.841,-297.493 496,-222 542.661,-189.128 609.073,-175.674 648.626,-170.336"/>
</g>
<!-- ActiveRecord::Base&#45;&gt;GradeScheme -->
<g id="edge52" class="edge"><title>ActiveRecord::Base&#45;&gt;GradeScheme</title>
<path fill="none" stroke="black" d="M1395.04,-765.907C1376.1,-756.565 1350.79,-745.573 1327,-740 1195.84,-709.275 849.435,-745.667 722,-702 625.405,-668.901 530.474,-588.298 492.416,-553.474"/>
</g>
<!-- ActiveRecord::Base&#45;&gt;GradeSchemeElement -->
<g id="edge53" class="edge"><title>ActiveRecord::Base&#45;&gt;GradeSchemeElement</title>
<path fill="none" stroke="black" d="M1395.97,-765.993C1376.97,-756.428 1351.26,-745.162 1327,-740 1191.25,-711.115 213.431,-752.359 78,-722 40.5599,-713.607 0,-723.369 0,-685 0,-685 0,-685 0,-165 0,-133.905 80.3904,-114.093 143.98,-103.287"/>
</g>
<!-- ActiveRecord::Base&#45;&gt;Group -->
<g id="edge60" class="edge"><title>ActiveRecord::Base&#45;&gt;Group</title>
<path fill="none" stroke="black" d="M1390.38,-766.275C1371.76,-758.043 1348.3,-748.033 1327,-740 1302.93,-730.925 1295.69,-732.025 1272,-722 1254.42,-714.561 1250.23,-712.038 1234,-702 1192.22,-676.166 919.128,-465.578 875,-444 821.307,-417.744 802.662,-425.019 746,-406 740.3,-404.087 734.246,-401.905 728.489,-399.757"/>
</g>
<!-- ActiveRecord::Base&#45;&gt;GroupMembership -->
<g id="edge61" class="edge"><title>ActiveRecord::Base&#45;&gt;GroupMembership</title>
<path fill="none" stroke="black" d="M1395.51,-765.955C1376.54,-756.505 1351.02,-745.379 1327,-740 1275.68,-728.51 382,-737.589 382,-685 382,-685 382,-685 382,-572 382,-492.749 569.62,-313.148 629.717,-257.653"/>
</g>
<!-- ActiveRecord::Base&#45;&gt;Rubric -->
<g id="edge64" class="edge"><title>ActiveRecord::Base&#45;&gt;Rubric</title>
<path fill="none" stroke="black" d="M1512.02,-779.719C1590.92,-775.014 1709.05,-761.288 1804,-722 1816.53,-716.814 1828.89,-707.971 1838.3,-700.23"/>
</g>
<!-- ActiveRecord::Base&#45;&gt;ScoreLevel -->
<g id="edge65" class="edge"><title>ActiveRecord::Base&#45;&gt;ScoreLevel</title>
<path fill="none" stroke="black" d="M1386.98,-766.722C1364.56,-756.417 1336.64,-741.2 1316,-722 1301.65,-708.65 1292,-704.601 1292,-685 1292,-685 1292,-685 1292,-535 1292,-515.198 1283.19,-494.056 1275.83,-479.842"/>
</g>
<!-- ActiveRecord::Base&#45;&gt;StudentAssignmentTypeWeight -->
<g id="edge66" class="edge"><title>ActiveRecord::Base&#45;&gt;StudentAssignmentTypeWeight</title>
<path fill="none" stroke="black" d="M1441.39,-765.288C1454.97,-750.175 1473.26,-726.581 1481,-702 1491.05,-670.072 1490.68,-661.192 1495,-628 1510.98,-505.161 1484.24,-469.995 1515,-350 1523.79,-315.715 1542.95,-278.898 1554.84,-258.031"/>
</g>
<!-- ActiveRecord::Base&#45;&gt;Team -->
<g id="edge72" class="edge"><title>ActiveRecord::Base&#45;&gt;Team</title>
<path fill="none" stroke="black" d="M1488.66,-770.433C1563.02,-755.066 1676,-725.118 1676,-685 1676,-685 1676,-685 1676,-461 1676,-437.716 1658.14,-416.546 1643.77,-403.279"/>
</g>
<!-- ActiveRecord::Base&#45;&gt;TeamMembership -->
<g id="edge73" class="edge"><title>ActiveRecord::Base&#45;&gt;TeamMembership</title>
<path fill="none" stroke="black" d="M1503.32,-774.476C1600.06,-762.966 1752,-736.666 1752,-685 1752,-685 1752,-685 1752,-572 1752,-546.558 1761.91,-541.762 1771,-518 1802.97,-434.437 1818.55,-416.485 1848,-332 1856.82,-306.71 1864.95,-276.733 1869.69,-258.29"/>
</g>
<!-- ActiveRecord::Base&#45;&gt;Theme -->
<g id="edge75" class="edge"><title>ActiveRecord::Base&#45;&gt;Theme</title>
<path fill="none" stroke="black" d="M1395.03,-765.94C1376.09,-756.612 1350.78,-745.621 1327,-740 1195.71,-708.967 1151.23,-766.847 1024,-722 1010.83,-717.359 998.031,-708.323 988.423,-700.343"/>
</g>
<!-- ActiveRecord::Base&#45;&gt;User -->
<g id="edge85" class="edge"><title>ActiveRecord::Base&#45;&gt;User</title>
<path fill="none" stroke="black" d="M1419.61,-765.025C1413.99,-745.815 1406,-713.486 1406,-685 1406,-685 1406,-685 1406,-572 1406,-526.516 1404.1,-403.193 1373,-370 1344.66,-339.748 1220.8,-323.626 1163.85,-317.695"/>
</g>
</g>
</svg>
